<?xml version="1.0" standalone="no"?>
<!DOCTYPE svg PUBLIC "-//W3C//DTD SVG 20010904//EN"
 "http://www.w3.org/TR/2001/REC-SVG-20010904/DTD/svg10.dtd">
<svg version="1.0" xmlns="http://www.w3.org/2000/svg"
 width="197.000000pt" height="47.000000pt" viewBox="0 0 197.000000 47.000000"
 preserveAspectRatio="xMidYMid meet">
<metadata>
Created by potrace 1.10, written by Peter Selinger 2001-2011
</metadata>
<g transform="translate(0.000000,47.000000) scale(0.100000,-0.100000)"
fill="#dddddd" stroke="none">
<path d="M56 409 l-27 -21 3 -136 c2 -97 7 -137 16 -140 9 -3 12 18 12 82 l0
85 37 3 c52 4 56 28 4 28 -40 0 -41 1 -41 33 0 18 5 38 12 45 17 17 78 15 100
-5 17 -15 18 -15 18 5 0 44 -87 58 -134 21z"/>
<path d="M1440 369 c0 -57 -1 -59 -21 -49 -24 14 -66 5 -91 -17 -14 -13 -18
-32 -18 -89 0 -92 13 -104 112 -104 l69 0 -3 151 c-3 147 -4 152 -25 160 -22
8 -23 6 -23 -52z m-12 -91 c7 -7 12 -38 12 -71 l0 -58 -37 3 -38 3 -3 53 c-2
31 2 60 9 68 14 17 41 18 57 2z"/>
<path d="M791 389 c-29 -31 -44 -114 -39 -207 5 -81 25 -133 60 -156 27 -17
32 0 9 31 -27 37 -45 133 -36 202 8 61 32 131 46 131 5 0 9 5 9 10 0 17 -28
11 -49 -11z"/>
<path d="M1740 405 c0 -3 9 -18 20 -33 53 -72 45 -287 -12 -327 -19 -13 -20
-15 -4 -21 80 -31 119 260 48 355 -17 24 -52 41 -52 26z"/>
<path d="M893 311 c-32 -20 -33 -23 -33 -89 0 -59 3 -72 23 -90 50 -47 164
-18 150 38 l-6 21 -14 -21 c-17 -24 -74 -28 -92 -6 -17 21 -10 107 10 119 23
15 69 0 78 -26 9 -21 9 -21 16 6 10 37 -10 57 -61 63 -28 4 -48 -1 -71 -15z"/>
<path d="M1120 323 c-40 -15 -50 -35 -50 -105 0 -89 17 -108 94 -108 73 0 97
20 104 88 6 67 -11 108 -50 121 -33 12 -73 13 -98 4z m78 -42 c9 -5 12 -26 10
-67 l-3 -59 -40 0 -40 0 -3 53 c-2 31 2 60 9 68 13 15 47 18 67 5z"/>
<path d="M1590 323 c-40 -15 -50 -35 -50 -105 0 -87 17 -108 89 -108 61 0 97
25 86 59 l-7 23 -15 -22 c-12 -17 -23 -20 -56 -18 -36 3 -43 7 -45 27 -3 21
-1 23 22 17 15 -4 41 0 61 8 30 13 35 20 35 48 0 18 -4 38 -8 44 -18 28 -74
41 -112 27z m68 -57 c5 -22 -13 -36 -45 -36 -17 0 -23 6 -23 23 0 31 9 39 40
35 15 -2 26 -10 28 -22z"/>
<path d="M168 214 c3 -82 6 -104 18 -104 11 0 14 18 14 90 l0 90 35 0 c22 0
38 -6 45 -17 9 -15 10 -13 8 12 -3 29 -4 30 -63 32 l-60 1 3 -104z"/>
<path d="M340 300 c-16 -16 -20 -33 -20 -89 0 -61 3 -72 22 -85 26 -18 90 -21
119 -6 11 7 19 21 19 38 l0 26 -16 -22 c-11 -16 -25 -22 -53 -22 -42 0 -61 14
-61 45 0 18 5 20 44 17 35 -3 49 1 65 17 44 44 11 101 -59 101 -27 0 -47 -7
-60 -20z m104 -26 c10 -26 -13 -44 -55 -44 -31 0 -39 4 -39 18 0 27 20 42 56
42 20 0 34 -6 38 -16z"/>
<path d="M552 304 c-19 -13 -22 -24 -22 -88 0 -87 14 -106 79 -106 52 0 81 14
81 40 0 24 -15 26 -24 4 -4 -11 -18 -14 -53 -12 -45 3 -48 5 -51 33 -3 30 -3
30 42 27 49 -4 86 21 86 58 0 52 -87 80 -138 44z m102 -30 c10 -26 -13 -44
-55 -44 -34 0 -39 3 -39 23 0 32 7 37 51 37 25 0 39 -5 43 -16z"/>
<path d="M1900 280 c0 -11 6 -20 13 -20 19 0 27 10 20 26 -8 21 -33 17 -33 -6z"/>
<path d="M1896 131 c-3 -5 0 -14 8 -20 10 -8 16 -8 25 2 6 8 8 17 4 20 -9 10
-31 9 -37 -2z"/>
</g>
</svg>
